%TF.GenerationSoftware,KiCad,Pcbnew,10.0.0*%
%TF.CreationDate,2026-06-25T15:36:21+01:00*%
%TF.ProjectId,KiCad_Opto_Isolated_Relay_Driver_PCB,4b694361-645f-44f7-9074-6f5f49736f6c,rev?*%
%TF.SameCoordinates,Original*%
%TF.FileFunction,Copper,L2,Bot*%
%TF.FilePolarity,Positive*%
%FSLAX46Y46*%
G04 Gerber Fmt 4.6, Leading zero omitted, Abs format (unit mm)*
G04 Created by KiCad (PCBNEW 10.0.0) date 2026-06-25 15:36:21*
%MOMM*%
%LPD*%
G01*
G04 APERTURE LIST*
G04 Aperture macros list*
%AMRoundRect*
0 Rectangle with rounded corners*
0 $1 Rounding radius*
0 $2 $3 $4 $5 $6 $7 $8 $9 X,Y pos of 4 corners*
0 Add a 4 corners polygon primitive as box body*
4,1,4,$2,$3,$4,$5,$6,$7,$8,$9,$2,$3,0*
0 Add four circle primitives for the rounded corners*
1,1,$1+$1,$2,$3*
1,1,$1+$1,$4,$5*
1,1,$1+$1,$6,$7*
1,1,$1+$1,$8,$9*
0 Add four rect primitives between the rounded corners*
20,1,$1+$1,$2,$3,$4,$5,0*
20,1,$1+$1,$4,$5,$6,$7,0*
20,1,$1+$1,$6,$7,$8,$9,0*
20,1,$1+$1,$8,$9,$2,$3,0*%
G04 Aperture macros list end*
%TA.AperFunction,ComponentPad*%
%ADD10C,2.600000*%
%TD*%
%TA.AperFunction,ComponentPad*%
%ADD11RoundRect,0.250000X-1.050000X-1.050000X1.050000X-1.050000X1.050000X1.050000X-1.050000X1.050000X0*%
%TD*%
%TA.AperFunction,ComponentPad*%
%ADD12C,1.600000*%
%TD*%
%TA.AperFunction,ComponentPad*%
%ADD13C,1.700000*%
%TD*%
%TA.AperFunction,ComponentPad*%
%ADD14R,1.700000X1.700000*%
%TD*%
%TA.AperFunction,ComponentPad*%
%ADD15R,1.800000X1.800000*%
%TD*%
%TA.AperFunction,ComponentPad*%
%ADD16C,1.800000*%
%TD*%
%TA.AperFunction,ComponentPad*%
%ADD17RoundRect,0.250000X1.050000X-1.050000X1.050000X1.050000X-1.050000X1.050000X-1.050000X-1.050000X0*%
%TD*%
%TA.AperFunction,ComponentPad*%
%ADD18C,3.000000*%
%TD*%
%TA.AperFunction,ComponentPad*%
%ADD19C,2.500000*%
%TD*%
%TA.AperFunction,ComponentPad*%
%ADD20RoundRect,0.250000X-0.550000X-0.550000X0.550000X-0.550000X0.550000X0.550000X-0.550000X0.550000X0*%
%TD*%
%TA.AperFunction,ComponentPad*%
%ADD21RoundRect,0.249999X0.850001X0.850001X-0.850001X0.850001X-0.850001X-0.850001X0.850001X-0.850001X0*%
%TD*%
%TA.AperFunction,ComponentPad*%
%ADD22C,2.200000*%
%TD*%
%TA.AperFunction,ComponentPad*%
%ADD23R,1.050000X1.500000*%
%TD*%
%TA.AperFunction,ComponentPad*%
%ADD24O,1.050000X1.500000*%
%TD*%
%TA.AperFunction,Conductor*%
%ADD25C,0.200000*%
%TD*%
G04 APERTURE END LIST*
D10*
%TO.P,5V_INPUT1,2,Pin_2_2*%
%TO.N,GND*%
X113000000Y-110500000D03*
D11*
%TO.P,5V_INPUT1,1,Pin_1_1*%
%TO.N,+5V*%
X107920000Y-110500000D03*
%TD*%
D12*
%TO.P,R2,2*%
%TO.N,Net-(RELAY_OUTPUT_COM_NO_NC1-Pin_1)*%
X79340000Y-85000000D03*
%TO.P,R2,1*%
%TO.N,Net-(Optocoupler1-Pad1)*%
X89500000Y-85000000D03*
%TD*%
D13*
%TO.P,MCU_CONTROL_INPUT,2,Pin_2_2*%
%TO.N,Net-(LED_INPUT1-K)*%
X79000000Y-99765000D03*
D14*
%TO.P,MCU_CONTROL_INPUT,1,Pin_1_1*%
%TO.N,Net-(RELAY_OUTPUT_COM_NO_NC1-Pin_1)*%
X79000000Y-97225000D03*
%TD*%
D12*
%TO.P,R1,1*%
%TO.N,Net-(RELAY_OUTPUT_COM_NO_NC1-Pin_1)*%
X79340000Y-90500000D03*
%TO.P,R1,2*%
%TO.N,Net-(LED_INPUT1-A)*%
X89500000Y-90500000D03*
%TD*%
D15*
%TO.P,LED_RELAY_ON1,1,K_1*%
%TO.N,Net-(1N1-K)*%
X111500000Y-86000000D03*
D16*
%TO.P,LED_RELAY_ON1,2,A_2*%
%TO.N,Net-(LED_RELAY_ON1-A)*%
X108960000Y-86000000D03*
%TD*%
D15*
%TO.P,LED_INPUT1,1,K_1*%
%TO.N,Net-(LED_INPUT1-K)*%
X89500000Y-100000000D03*
D16*
%TO.P,LED_INPUT1,2,A_2*%
%TO.N,Net-(LED_INPUT1-A)*%
X89500000Y-97460000D03*
%TD*%
D12*
%TO.P,R3,1*%
%TO.N,Net-(Optocoupler1-Pad3)*%
X110840000Y-100000000D03*
%TO.P,R3,2*%
%TO.N,Net-(2N1-B)*%
X121000000Y-100000000D03*
%TD*%
D17*
%TO.P,RELAY_OUTPUT_COM_NO_NC2,1,Pin_1_1*%
%TO.N,Net-(RELAY_OUTPUT_COM_NO_NC2-Pin_1)*%
X157000000Y-103500000D03*
D10*
%TO.P,RELAY_OUTPUT_COM_NO_NC2,2,Pin_2_2*%
%TO.N,Net-(RELAY_OUTPUT_COM_NO_NC2-Pin_2)*%
X157000000Y-98420000D03*
%TO.P,RELAY_OUTPUT_COM_NO_NC2,3,Pin_3_3*%
%TO.N,Net-(RELAY_OUTPUT_COM_NO_NC2-Pin_3)*%
X157000000Y-93340000D03*
%TD*%
D18*
%TO.P,K1,1*%
%TO.N,Net-(RELAY_OUTPUT_COM_NO_NC2-Pin_1)*%
X126000000Y-97500000D03*
D19*
%TO.P,K1,2*%
%TO.N,Net-(1N1-K)*%
X127950000Y-103550000D03*
D18*
%TO.P,K1,3*%
%TO.N,Net-(RELAY_OUTPUT_COM_NO_NC2-Pin_2)*%
X140150000Y-103550000D03*
%TO.P,K1,4*%
%TO.N,Net-(RELAY_OUTPUT_COM_NO_NC2-Pin_3)*%
X140200000Y-91500000D03*
D19*
%TO.P,K1,5*%
%TO.N,+5V*%
X127950000Y-91550000D03*
%TD*%
D20*
%TO.P,Optocoupler1,1*%
%TO.N,Net-(Optocoupler1-Pad1)*%
X97380000Y-97500000D03*
D12*
%TO.P,Optocoupler1,2*%
%TO.N,Net-(LED_INPUT1-K)*%
X97380000Y-100040000D03*
%TO.P,Optocoupler1,3*%
%TO.N,Net-(Optocoupler1-Pad3)*%
X105000000Y-100040000D03*
%TO.P,Optocoupler1,4*%
%TO.N,+5V*%
X105000000Y-97500000D03*
%TD*%
D21*
%TO.P,1N1,1,K_1*%
%TO.N,Net-(1N1-K)*%
X142080000Y-81000000D03*
D22*
%TO.P,1N1,2,A_2*%
%TO.N,+5V*%
X131920000Y-81000000D03*
%TD*%
D12*
%TO.P,R4,1*%
%TO.N,+5V*%
X93840000Y-85000000D03*
%TO.P,R4,2*%
%TO.N,Net-(LED_RELAY_ON1-A)*%
X104000000Y-85000000D03*
%TD*%
D23*
%TO.P,2N1,1,B_1*%
%TO.N,Net-(2N1-B)*%
X119770000Y-86000000D03*
D24*
%TO.P,2N1,2,C_2*%
%TO.N,Net-(1N1-K)*%
X118500000Y-86000000D03*
%TO.P,2N1,3,E_3*%
%TO.N,GND*%
X117230000Y-86000000D03*
%TD*%
%TO.N,Net-(RELAY_OUTPUT_COM_NO_NC2-Pin_2)*%
D25*
X151870000Y-103550000D02*
X157000000Y-98420000D01*
X140150000Y-103550000D02*
X151870000Y-103550000D01*
%TO.N,+5V*%
X109895635Y-97500000D02*
X105000000Y-97500000D01*
X111940000Y-101615635D02*
X111940000Y-99544365D01*
X111400000Y-102155635D02*
X111940000Y-101615635D01*
X111400000Y-111162742D02*
X111400000Y-102155635D01*
X112337258Y-112100000D02*
X111400000Y-111162742D01*
X122157718Y-112100000D02*
X112337258Y-112100000D01*
X129900000Y-104357718D02*
X122157718Y-112100000D01*
X129900000Y-93500000D02*
X129900000Y-104357718D01*
X127950000Y-91550000D02*
X129900000Y-93500000D01*
X111940000Y-99544365D02*
X109895635Y-97500000D01*
%TO.N,Net-(2N1-B)*%
X126100000Y-105100000D02*
X121000000Y-100000000D01*
X129500000Y-104192032D02*
X128592032Y-105100000D01*
X128592032Y-105100000D02*
X126100000Y-105100000D01*
X129500000Y-95730000D02*
X129500000Y-104192032D01*
X119770000Y-86000000D02*
X129500000Y-95730000D01*
%TO.N,Net-(1N1-K)*%
X118500000Y-94100000D02*
X118500000Y-86000000D01*
X127950000Y-103550000D02*
X118500000Y-94100000D01*
X118500000Y-85395000D02*
X118500000Y-86000000D01*
X124295000Y-79600000D02*
X118500000Y-85395000D01*
X140680000Y-79600000D02*
X124295000Y-79600000D01*
X142080000Y-81000000D02*
X140680000Y-79600000D01*
%TO.N,+5V*%
X131920000Y-87580000D02*
X127950000Y-91550000D01*
X131920000Y-81000000D02*
X131920000Y-87580000D01*
%TO.N,GND*%
X117230000Y-106270000D02*
X113000000Y-110500000D01*
X117230000Y-86000000D02*
X117230000Y-106270000D01*
%TO.N,Net-(1N1-K)*%
X118500000Y-85500000D02*
X118500000Y-86000000D01*
X117950000Y-84950000D02*
X118500000Y-85500000D01*
X112550000Y-84950000D02*
X117950000Y-84950000D01*
X111500000Y-86000000D02*
X112550000Y-84950000D01*
%TO.N,Net-(LED_RELAY_ON1-A)*%
X107960000Y-85000000D02*
X108960000Y-86000000D01*
X104000000Y-85000000D02*
X107960000Y-85000000D01*
%TO.N,+5V*%
X103900000Y-106480000D02*
X107920000Y-110500000D01*
X105000000Y-97500000D02*
X103900000Y-98600000D01*
X103900000Y-98600000D02*
X103900000Y-106480000D01*
%TO.N,Net-(Optocoupler1-Pad3)*%
X110800000Y-100040000D02*
X110840000Y-100000000D01*
X105000000Y-100040000D02*
X110800000Y-100040000D01*
%TO.N,+5V*%
X93840000Y-86340000D02*
X105000000Y-97500000D01*
X93840000Y-85000000D02*
X93840000Y-86340000D01*
%TO.N,Net-(LED_INPUT1-K)*%
X90040000Y-100040000D02*
X97380000Y-100040000D01*
X90000000Y-100000000D02*
X90040000Y-100040000D01*
X89500000Y-100000000D02*
X90000000Y-100000000D01*
%TO.N,Net-(Optocoupler1-Pad1)*%
X89500000Y-85000000D02*
X97380000Y-92880000D01*
X97380000Y-92880000D02*
X97380000Y-97500000D01*
%TO.N,Net-(LED_INPUT1-A)*%
X89500000Y-90500000D02*
X89500000Y-97460000D01*
%TO.N,Net-(LED_INPUT1-K)*%
X89265000Y-99765000D02*
X89500000Y-100000000D01*
X79000000Y-99765000D02*
X89265000Y-99765000D01*
%TO.N,Net-(RELAY_OUTPUT_COM_NO_NC1-Pin_1)*%
X79340000Y-96885000D02*
X79000000Y-97225000D01*
X79340000Y-90500000D02*
X79340000Y-96885000D01*
X79340000Y-85000000D02*
X79340000Y-90500000D01*
%TD*%
M02*
